<svg version="1.1" viewBox="0 0 96 96" xmlns="http://www.w3.org/2000/svg" xmlns:xlink="http://www.w3.org/1999/xlink" id="Icons_Volleyball" overflow="hidden"><g><path d=" M 14.4 29.8 C 12.3 33.7 10.9 38.1 10.3 42.7 C 16.2 58.9 30 70 35.7 74 C 37.9 71 39.7 67.9 41 65.1 C 36.2 61.5 20.8 48.9 14.4 29.8 Z"/><path d=" M 66.1 45.4 C 65.5 51.2 62.3 71.2 48.7 86.5 C 53.3 86.4 57.7 85.5 61.7 83.9 C 73.3 70.5 75.9 52.4 76.5 45.6 C 72.8 45.1 69.3 45.1 66.1 45.4 Z"/><path d=" M 49.8 49.3 C 49.4 53.8 47 69.4 33 83.4 C 36.3 84.8 39.8 85.8 43.4 86.2 C 57.4 72.5 61.1 52.6 62 45.9 C 56 46.8 51.6 48.5 49.8 49.3 Z"/><path d=" M 31.5 24.4 C 31.6 24.6 31.7 24.9 31.8 25.1 C 33.3 28.3 34.9 31.1 36.6 33.5 C 42.1 31.1 60.7 24.1 80.4 28 C 78.1 24.2 75.2 20.8 71.8 18.1 C 54.6 14.9 37.8 21.5 31.5 24.4 Z"/><path d=" M 82.8 32.7 C 64.2 27.8 45.5 34.2 39.1 36.8 C 43 41.7 46.7 44.5 48.2 45.6 C 52.4 43.7 66.9 38.3 85.6 43.1 C 85.1 39.5 84.2 36 82.8 32.7 Z"/><path d=" M 33.2 77.2 C 28 73.5 17.2 64.9 10.1 52 C 11.4 64.7 18.8 75.5 29.2 81.5 C 30.7 80.1 32 78.6 33.2 77.2 Z"/><path d=" M 80.5 46.1 C 80 52.4 77.9 66.5 70.1 79.3 C 79.7 72.3 85.9 60.9 85.9 48 C 85.9 47.8 85.9 47.6 85.9 47.3 C 84 46.8 82.3 46.4 80.5 46.1 Z"/><path d=" M 30 20.7 C 35.8 18 49.1 12.7 64.2 13.2 C 59.3 10.8 53.7 9.5 47.9 9.5 C 40.7 9.5 34 11.5 28.3 15 C 28.8 17 29.4 18.9 30 20.7 Z"/><path d=" M 42.7 61.3 C 44.9 55.6 45.6 51 45.8 49 C 42.7 46.8 34 39.7 28.1 26.8 C 26.8 24 25.6 20.9 24.7 17.5 C 21.8 19.7 19.3 22.3 17.2 25.3 C 22.2 44 37.2 57.1 42.7 61.3 Z"/></g></svg>