<svg version="1.1" viewBox="0 0 96 96" xmlns="http://www.w3.org/2000/svg" xmlns:xlink="http://www.w3.org/1999/xlink" id="Icons_NeutralFaceOutline" overflow="hidden"><path d=" M 59 63 L 37 63 C 35.9 63 35 63.9 35 65 C 35 66.1 35.9 67 37 67 L 59 67 C 60.1 67 61 66.1 61 65 C 61 63.9 60.1 63 59 63 Z"/><g><path d=" M 38 35.7 C 39.1 35.7 40 34.8 40 33.7 C 40 32.6 39.1 31.7 38 31.7 L 26 31.7 C 24.9 31.7 24 32.6 24 33.7 C 24 34.8 24.9 35.7 26 35.7 L 38 35.7 Z"/><circle cx="32" cy="44.7" r="6"/><path d=" M 70 31.7 L 58 31.7 C 56.9 31.7 56 32.6 56 33.7 C 56 34.8 56.9 35.7 58 35.7 L 70 35.7 C 71.1 35.7 72 34.8 72 33.7 C 72 32.6 71.1 31.7 70 31.7 Z"/><circle cx="64" cy="44.7" r="6"/></g><g><path d=" M 48 14 C 66.7 14 82 29.3 82 48 C 82 66.7 66.7 82 48 82 C 29.3 82 14 66.7 14 48 C 14 29.3 29.3 14 48 14 M 48 10 C 27 10 10 27 10 48 C 10 69 27 86 48 86 C 69 86 86 69 86 48 C 86 27 69 10 48 10 L 48 10 Z"/></g><g id="Icons_Layer_2"></g><g id="Icons_Layer_3" display="none"></g></svg>